<svg width="107" height="30" viewBox="0 0 107 30" fill="none" xmlns="http://www.w3.org/2000/svg">
<path d="M17.512 23L11.344 6.992H7.072L0.88 23H4.768L5.776 20.288H12.64L13.624 23H17.512ZM11.704 17.288H6.712L9.208 10.4L11.704 17.288ZM28.8063 15.848V13.952H24.5103V9.272H22.4223V13.952H18.1023V15.848H22.4223V20.72H24.5103V15.848H28.8063ZM43.0711 23.144C46.0471 23.144 48.7831 21.464 48.7831 18.344C48.7831 15.152 46.3591 14.384 43.5031 13.256C41.3671 12.44 39.8311 11.84 39.8551 10.208C39.8791 8.576 41.2951 7.712 42.9031 7.712C44.1751 7.712 45.6391 8.312 47.0071 9.44L48.2791 7.784C46.6711 6.488 44.7991 5.792 42.9031 5.792C39.9751 5.792 37.6951 7.76 37.6951 10.304C37.6951 13.304 40.2631 14.384 42.7831 15.32C45.0631 16.184 46.5991 16.688 46.5991 18.584C46.5991 20.24 45.1831 21.2 43.0951 21.2C41.4391 21.2 39.6151 20.432 38.3911 18.896L37.0471 20.504C38.7511 22.328 40.9351 23.144 43.0711 23.144ZM55.0729 23.144C56.4649 23.144 57.2569 22.808 57.9049 22.424L57.4009 20.72C56.8249 21.032 56.1049 21.32 55.4089 21.32C54.3049 21.32 53.9929 20.648 53.9929 19.232V12.992H57.8569V11.312H53.9929V7.112L52.0489 7.328V11.312H50.5369V12.992H52.0489V19.52C52.0489 21.872 53.0089 23.144 55.0729 23.144ZM64.5848 23.144C66.1208 23.144 67.5608 22.376 68.4488 20.984H68.4728V23H70.4168V11.312H68.4728V16.976C68.4728 19.76 66.8648 21.368 64.9928 21.368C63.1448 21.368 62.1368 20.36 62.1368 17.72V11.312H60.1928V18.272C60.1928 21.608 61.8968 23.144 64.5848 23.144ZM78.9014 23.144C80.7974 23.144 82.2854 22.256 83.1254 20.84H83.1494V23H85.0214V5.336H83.0774V13.4H83.0534C82.1654 11.984 80.6534 11.168 78.8774 11.168C75.5894 11.168 73.1654 13.784 73.1654 17.24C73.1654 20.792 75.6614 23.144 78.9014 23.144ZM79.1654 21.368C76.7894 21.368 75.1574 19.592 75.1574 17.24C75.1574 14.648 76.9574 12.944 79.1894 12.944C81.5414 12.944 83.1494 14.84 83.1494 17.24C83.1494 19.712 81.3734 21.368 79.1654 21.368ZM89.7801 9.176C90.5721 9.176 91.1961 8.552 91.1961 7.784C91.1961 7.016 90.5721 6.392 89.7801 6.392C88.9881 6.392 88.3641 7.016 88.3641 7.784C88.3641 8.552 88.9881 9.176 89.7801 9.176ZM88.7961 11.312V23H90.7401V11.312H88.7961ZM99.8389 23.144C103.295 23.144 105.863 20.72 105.863 17.168C105.863 13.616 103.295 11.168 99.8389 11.168C96.2149 11.168 93.7909 13.808 93.7909 17.168C93.7909 20.528 96.2149 23.144 99.8389 23.144ZM99.8389 21.368C97.4149 21.368 95.7829 19.496 95.7829 17.168C95.7829 14.84 97.3909 12.944 99.8389 12.944C102.095 12.944 103.871 14.672 103.871 17.168C103.871 19.664 102.071 21.368 99.8389 21.368Z" fill="black"/>
</svg>
